<mxfile host="app.diagrams.net" agent="Mozilla/5.0 (Windows NT 10.0; Win64; x64) AppleWebKit/537.36 (KHTML, like Gecko) Chrome/133.0.0.0 Safari/537.36" version="26.1.0">
  <diagram id="C5RBs43oDa-KdzZeNtuy" name="Page-1">
    <mxGraphModel grid="1" page="1" gridSize="10" guides="1" tooltips="1" connect="1" arrows="1" fold="1" pageScale="1" pageWidth="827" pageHeight="1169" math="0" shadow="0">
      <root>
        <mxCell id="WIyWlLk6GJQsqaUBKTNV-0" />
        <mxCell id="WIyWlLk6GJQsqaUBKTNV-1" parent="WIyWlLk6GJQsqaUBKTNV-0" />
        <mxCell id="iXmqzpFQKqinNQqxrl1--34" style="edgeStyle=orthogonalEdgeStyle;rounded=0;orthogonalLoop=1;jettySize=auto;html=1;" edge="1" parent="WIyWlLk6GJQsqaUBKTNV-1" source="iXmqzpFQKqinNQqxrl1--1" target="iXmqzpFQKqinNQqxrl1--32">
          <mxGeometry relative="1" as="geometry" />
        </mxCell>
        <mxCell id="iXmqzpFQKqinNQqxrl1--1" value="&lt;p&gt;histograms.py&lt;/p&gt;" style="ellipse;whiteSpace=wrap;html=1;" vertex="1" parent="WIyWlLk6GJQsqaUBKTNV-1">
          <mxGeometry x="39.96" y="10" width="120" height="70" as="geometry" />
        </mxCell>
        <mxCell id="iXmqzpFQKqinNQqxrl1--26" style="edgeStyle=orthogonalEdgeStyle;rounded=0;orthogonalLoop=1;jettySize=auto;html=1;entryX=0.5;entryY=0;entryDx=0;entryDy=0;" edge="1" parent="WIyWlLk6GJQsqaUBKTNV-1" source="iXmqzpFQKqinNQqxrl1--2" target="iXmqzpFQKqinNQqxrl1--25">
          <mxGeometry relative="1" as="geometry" />
        </mxCell>
        <mxCell id="iXmqzpFQKqinNQqxrl1--2" value="import pygal" style="shape=parallelogram;perimeter=parallelogramPerimeter;whiteSpace=wrap;html=1;fixedSize=1;" vertex="1" parent="WIyWlLk6GJQsqaUBKTNV-1">
          <mxGeometry x="39.96" y="220" width="120" height="60" as="geometry" />
        </mxCell>
        <mxCell id="wzVWu2LCXRriYMG0dlIS-0" value="2015-2019" style="edgeStyle=orthogonalEdgeStyle;rounded=0;orthogonalLoop=1;jettySize=auto;html=1;entryX=0.5;entryY=0;entryDx=0;entryDy=0;" edge="1" parent="WIyWlLk6GJQsqaUBKTNV-1" source="iXmqzpFQKqinNQqxrl1--10" target="dp1R0ACXllTNSjMuJvRC-0">
          <mxGeometry relative="1" as="geometry">
            <mxPoint x="99.96000000000004" y="540" as="targetPoint" />
          </mxGeometry>
        </mxCell>
        <mxCell id="wzVWu2LCXRriYMG0dlIS-17" value="finished" style="edgeStyle=orthogonalEdgeStyle;rounded=0;orthogonalLoop=1;jettySize=auto;html=1;entryX=0;entryY=0.5;entryDx=0;entryDy=0;" edge="1" parent="WIyWlLk6GJQsqaUBKTNV-1" source="iXmqzpFQKqinNQqxrl1--10" target="wzVWu2LCXRriYMG0dlIS-16">
          <mxGeometry relative="1" as="geometry" />
        </mxCell>
        <mxCell id="iXmqzpFQKqinNQqxrl1--10" value="Loop&lt;div&gt;Through&lt;br&gt;Years&lt;/div&gt;" style="rhombus;whiteSpace=wrap;html=1;" vertex="1" parent="WIyWlLk6GJQsqaUBKTNV-1">
          <mxGeometry x="59.96" y="420" width="80" height="80" as="geometry" />
        </mxCell>
        <mxCell id="iXmqzpFQKqinNQqxrl1--30" style="edgeStyle=orthogonalEdgeStyle;rounded=0;orthogonalLoop=1;jettySize=auto;html=1;entryX=0.5;entryY=0;entryDx=0;entryDy=0;" edge="1" parent="WIyWlLk6GJQsqaUBKTNV-1" source="iXmqzpFQKqinNQqxrl1--25" target="iXmqzpFQKqinNQqxrl1--10">
          <mxGeometry relative="1" as="geometry" />
        </mxCell>
        <mxCell id="iXmqzpFQKqinNQqxrl1--25" value="Define CSVs" style="shape=parallelogram;perimeter=parallelogramPerimeter;whiteSpace=wrap;html=1;fixedSize=1;" vertex="1" parent="WIyWlLk6GJQsqaUBKTNV-1">
          <mxGeometry x="39.96" y="320" width="120" height="60" as="geometry" />
        </mxCell>
        <mxCell id="iXmqzpFQKqinNQqxrl1--33" style="edgeStyle=orthogonalEdgeStyle;rounded=0;orthogonalLoop=1;jettySize=auto;html=1;entryX=0.5;entryY=0;entryDx=0;entryDy=0;" edge="1" parent="WIyWlLk6GJQsqaUBKTNV-1" source="iXmqzpFQKqinNQqxrl1--32" target="iXmqzpFQKqinNQqxrl1--2">
          <mxGeometry relative="1" as="geometry" />
        </mxCell>
        <mxCell id="iXmqzpFQKqinNQqxrl1--32" value="&lt;font face=&quot;Helvetica&quot;&gt;import pandas&lt;/font&gt;" style="shape=parallelogram;perimeter=parallelogramPerimeter;whiteSpace=wrap;html=1;fixedSize=1;" vertex="1" parent="WIyWlLk6GJQsqaUBKTNV-1">
          <mxGeometry x="39.96" y="120" width="120" height="60" as="geometry" />
        </mxCell>
        <mxCell id="wzVWu2LCXRriYMG0dlIS-4" style="edgeStyle=orthogonalEdgeStyle;rounded=0;orthogonalLoop=1;jettySize=auto;html=1;" edge="1" parent="WIyWlLk6GJQsqaUBKTNV-1" source="iXmqzpFQKqinNQqxrl1--83" target="wzVWu2LCXRriYMG0dlIS-3">
          <mxGeometry relative="1" as="geometry" />
        </mxCell>
        <mxCell id="iXmqzpFQKqinNQqxrl1--83" value="Extract First and Last&lt;div&gt;Ranked&amp;nbsp;&lt;span style=&quot;color: rgba(0, 0, 0, 0); font-family: monospace; font-size: 0px; text-align: start; text-wrap-mode: nowrap; background-color: transparent;&quot;&gt;%3CmxGraphModel%3E%3Croot%3E%3CmxCell%20id%3D%220%22%2F%3E%3CmxCell%20id%3D%221%22%20parent%3D%220%22%2F%3E%3CmxCell%20id%3D%222%22%20value%3D%22Loop%26lt%3Bdiv%26gt%3Buntil%202019%26lt%3B%2Fdiv%26gt%3B%22%20style%3D%22rhombus%3BwhiteSpace%3Dwrap%3Bhtml%3D1%3B%22%20vertex%3D%221%22%20parent%3D%221%22%3E%3CmxGeometry%20x%3D%22360%22%20y%3D%22400%22%20width%3D%2280%22%20height%3D%2280%22%20as%3D%22geometry%22%2F%3E%3C%2FmxCell%3E%3C%2Froot%3E%3C%2FmxGraphModel%3E&lt;/span&gt;&lt;span style=&quot;background-color: transparent; color: light-dark(rgb(0, 0, 0), rgb(255, 255, 255));&quot;&gt;Countries&lt;/span&gt;&lt;/div&gt;" style="rounded=0;whiteSpace=wrap;html=1;" vertex="1" parent="WIyWlLk6GJQsqaUBKTNV-1">
          <mxGeometry x="180" y="550" width="120" height="60" as="geometry" />
        </mxCell>
        <mxCell id="wzVWu2LCXRriYMG0dlIS-6" style="edgeStyle=orthogonalEdgeStyle;rounded=0;orthogonalLoop=1;jettySize=auto;html=1;" edge="1" parent="WIyWlLk6GJQsqaUBKTNV-1" source="wzVWu2LCXRriYMG0dlIS-3" target="wzVWu2LCXRriYMG0dlIS-5">
          <mxGeometry relative="1" as="geometry" />
        </mxCell>
        <mxCell id="wzVWu2LCXRriYMG0dlIS-3" value="Extract First and Last&lt;div&gt;Ranked&amp;nbsp;&lt;span style=&quot;color: rgba(0, 0, 0, 0); font-family: monospace; font-size: 0px; text-align: start; text-wrap-mode: nowrap; background-color: transparent;&quot;&gt;%3CmxGraphModel%3E%3Croot%3E%3CmxCell%20id%3D%220%22%2F%3E%3CmxCell%20id%3D%221%22%20parent%3D%220%22%2F%3E%3CmxCell%20id%3D%222%22%20value%3D%22Loop%26lt%3Bdiv%26gt%3Buntil%202019%26lt%3B%2Fdiv%26gt%3B%22%20style%3D%22rhombus%3BwhiteSpace%3Dwrap%3Bhtml%3D1%3B%22%20vertex%3D%221%22%20parent%3D%221%22%3E%3CmxGeometry%20x%3D%22360%22%20y%3D%22400%22%20width%3D%2280%22%20height%3D%2280%22%20as%3D%22geometry%22%2F%3E%3C%2FmxCell%3E%3C%2Froot%3E%3C%2FmxGraphModel%3E&lt;/span&gt;&lt;span style=&quot;background-color: transparent; color: light-dark(rgb(0, 0, 0), rgb(255, 255, 255));&quot;&gt;Countries&lt;/span&gt;&lt;/div&gt;" style="rounded=0;whiteSpace=wrap;html=1;" vertex="1" parent="WIyWlLk6GJQsqaUBKTNV-1">
          <mxGeometry x="340" y="550" width="120" height="60" as="geometry" />
        </mxCell>
        <mxCell id="wzVWu2LCXRriYMG0dlIS-18" style="edgeStyle=orthogonalEdgeStyle;rounded=0;orthogonalLoop=1;jettySize=auto;html=1;entryX=0;entryY=0.5;entryDx=0;entryDy=0;" edge="1" parent="WIyWlLk6GJQsqaUBKTNV-1" source="wzVWu2LCXRriYMG0dlIS-5" target="wzVWu2LCXRriYMG0dlIS-7">
          <mxGeometry relative="1" as="geometry" />
        </mxCell>
        <mxCell id="wzVWu2LCXRriYMG0dlIS-5" value="Idefntify Columns for&lt;div&gt;Histogram&amp;nbsp;&lt;span style=&quot;background-color: transparent; color: light-dark(rgb(0, 0, 0), rgb(255, 255, 255));&quot;&gt;(excluding &quot;Happiness Rank&quot;)&lt;/span&gt;&lt;/div&gt;" style="rounded=0;whiteSpace=wrap;html=1;" vertex="1" parent="WIyWlLk6GJQsqaUBKTNV-1">
          <mxGeometry x="500" y="550" width="120" height="60" as="geometry" />
        </mxCell>
        <mxCell id="wzVWu2LCXRriYMG0dlIS-10" style="edgeStyle=orthogonalEdgeStyle;rounded=0;orthogonalLoop=1;jettySize=auto;html=1;" edge="1" parent="WIyWlLk6GJQsqaUBKTNV-1" source="wzVWu2LCXRriYMG0dlIS-7" target="wzVWu2LCXRriYMG0dlIS-9">
          <mxGeometry relative="1" as="geometry" />
        </mxCell>
        <mxCell id="wzVWu2LCXRriYMG0dlIS-7" value="Create Histogram" style="rounded=0;whiteSpace=wrap;html=1;" vertex="1" parent="WIyWlLk6GJQsqaUBKTNV-1">
          <mxGeometry x="660" y="550" width="120" height="60" as="geometry" />
        </mxCell>
        <mxCell id="wzVWu2LCXRriYMG0dlIS-12" style="edgeStyle=orthogonalEdgeStyle;rounded=0;orthogonalLoop=1;jettySize=auto;html=1;" edge="1" parent="WIyWlLk6GJQsqaUBKTNV-1" source="wzVWu2LCXRriYMG0dlIS-9" target="wzVWu2LCXRriYMG0dlIS-11">
          <mxGeometry relative="1" as="geometry" />
        </mxCell>
        <mxCell id="wzVWu2LCXRriYMG0dlIS-9" value="Add Data to First&lt;div&gt;and Last Ranked&lt;/div&gt;&lt;div&gt;Countries&lt;/div&gt;" style="rounded=0;whiteSpace=wrap;html=1;" vertex="1" parent="WIyWlLk6GJQsqaUBKTNV-1">
          <mxGeometry x="660" y="650" width="120" height="60" as="geometry" />
        </mxCell>
        <mxCell id="wzVWu2LCXRriYMG0dlIS-11" value="Label x axis to&lt;div&gt;Columns Identified&lt;/div&gt;" style="rounded=0;whiteSpace=wrap;html=1;" vertex="1" parent="WIyWlLk6GJQsqaUBKTNV-1">
          <mxGeometry x="500" y="650" width="120" height="60" as="geometry" />
        </mxCell>
        <mxCell id="wzVWu2LCXRriYMG0dlIS-20" style="edgeStyle=orthogonalEdgeStyle;rounded=0;orthogonalLoop=1;jettySize=auto;html=1;entryX=0;entryY=0.5;entryDx=0;entryDy=0;" edge="1" parent="WIyWlLk6GJQsqaUBKTNV-1" source="wzVWu2LCXRriYMG0dlIS-13" target="iXmqzpFQKqinNQqxrl1--25">
          <mxGeometry relative="1" as="geometry">
            <Array as="points">
              <mxPoint x="20" y="680" />
              <mxPoint x="20" y="350" />
            </Array>
          </mxGeometry>
        </mxCell>
        <mxCell id="wzVWu2LCXRriYMG0dlIS-13" value="save to&lt;div&gt;histogram_{year}.svg&lt;/div&gt;" style="rhombus;whiteSpace=wrap;html=1;" vertex="1" parent="WIyWlLk6GJQsqaUBKTNV-1">
          <mxGeometry x="380" y="640" width="80" height="80" as="geometry" />
        </mxCell>
        <mxCell id="wzVWu2LCXRriYMG0dlIS-16" value="&lt;p&gt;End&lt;/p&gt;" style="ellipse;whiteSpace=wrap;html=1;" vertex="1" parent="WIyWlLk6GJQsqaUBKTNV-1">
          <mxGeometry x="200" y="425" width="120" height="70" as="geometry" />
        </mxCell>
        <mxCell id="wzVWu2LCXRriYMG0dlIS-19" style="edgeStyle=orthogonalEdgeStyle;rounded=0;orthogonalLoop=1;jettySize=auto;html=1;entryX=0.942;entryY=0.51;entryDx=0;entryDy=0;entryPerimeter=0;" edge="1" parent="WIyWlLk6GJQsqaUBKTNV-1" source="wzVWu2LCXRriYMG0dlIS-11" target="wzVWu2LCXRriYMG0dlIS-13">
          <mxGeometry relative="1" as="geometry" />
        </mxCell>
        <mxCell id="dp1R0ACXllTNSjMuJvRC-1" style="edgeStyle=orthogonalEdgeStyle;rounded=0;orthogonalLoop=1;jettySize=auto;html=1;" edge="1" parent="WIyWlLk6GJQsqaUBKTNV-1" source="dp1R0ACXllTNSjMuJvRC-0" target="iXmqzpFQKqinNQqxrl1--83">
          <mxGeometry relative="1" as="geometry" />
        </mxCell>
        <mxCell id="dp1R0ACXllTNSjMuJvRC-0" value="Read CSV" style="shape=parallelogram;perimeter=parallelogramPerimeter;whiteSpace=wrap;html=1;fixedSize=1;" vertex="1" parent="WIyWlLk6GJQsqaUBKTNV-1">
          <mxGeometry x="39.96" y="550" width="120" height="60" as="geometry" />
        </mxCell>
      </root>
    </mxGraphModel>
  </diagram>
</mxfile>
